<?xml version="1.0" encoding="UTF-8"?>
<svg version="1.1" xmlns="http://www.w3.org/2000/svg" width="1024" height="370">
<path d="M0 0 C337.92 0 675.84 0 1024 0 C1024 122.1 1024 244.2 1024 370 C686.08 370 348.16 370 0 370 C0 247.9 0 125.8 0 0 Z " fill="#010101" transform="translate(0,0)"/>
<path d="M0 0 C0.07043246 14.45700222 0.12295423 28.91397739 0.15543652 43.37111664 C0.1708316 50.08552758 0.19216146 56.79981542 0.22631836 63.51416016 C0.25912619 70.00458401 0.27689793 76.49489691 0.28463173 82.98539734 C0.29013699 85.4506759 0.30088641 87.91594901 0.31719017 90.38117981 C0.50852915 120.53636947 -4.48770515 147.49679707 -26 170 C-36.43519138 179.80693463 -48.05910448 186.00695323 -61.43359375 190.73828125 C-63.49386026 191.46715976 -65.54484626 192.22674242 -67.5625 193.06640625 C-70.52001716 194.19917324 -73.47639778 194.91694874 -76.5625 195.625 C-77.67753906 195.88539063 -78.79257813 196.14578125 -79.94140625 196.4140625 C-83 197 -83 197 -87 197 C-87 187.43 -87 177.86 -87 168 C-83.04 167.01 -79.08 166.02 -75 165 C-72.18681844 163.84344131 -69.60597253 162.7152966 -66.9375 161.3125 C-66.26340088 160.96437256 -65.58930176 160.61624512 -64.89477539 160.25756836 C-55.12761682 155.0874036 -47.12794149 149.32092152 -41 140 C-40.55140625 139.33742187 -40.1028125 138.67484375 -39.640625 137.9921875 C-32.25310516 125.99886825 -30.24787022 112.80022486 -30.29296875 99 C-30.27980383 97.54311092 -30.26448527 96.08623991 -30.24714661 94.62939453 C-30.20784203 90.85492023 -30.19714218 87.08092906 -30.19311523 83.30627441 C-30.18367888 79.43060138 -30.14620209 75.55520033 -30.11132812 71.6796875 C-30.04731044 64.11978832 -30.0136144 56.56017625 -30 49 C-31.74199491 49.94384134 -33.48321796 50.88910734 -35.22412109 51.83496094 C-36.19384857 52.36120056 -37.16357605 52.88744019 -38.16268921 53.42962646 C-42.0588186 55.58602699 -45.8442353 57.89910083 -49.625 60.25 C-55.76223542 64.0298219 -61.91894236 67.77160261 -68.125 71.4375 C-69.13554443 72.03836426 -69.13554443 72.03836426 -70.16650391 72.65136719 C-75.57262422 75.83301733 -81.03295411 79.0109847 -87 81 C-87.32371265 76.58984615 -87.55815776 72.18610257 -87.71411133 67.76757812 C-87.77913545 66.26895759 -87.86761159 64.77115122 -87.98071289 63.27539062 C-88.35067841 58.25323427 -88.37400369 53.87754914 -87 49 C-83.69365469 45.62271692 -80.10405916 43.75059985 -75.80844116 41.83508301 C-72.96670983 40.52285809 -70.3246405 38.89465084 -67.640625 37.2890625 C-65.5113876 36.06601644 -63.38115943 34.84469382 -61.25 33.625 C-58.95803101 32.30781759 -56.66636413 30.99010935 -54.375 29.671875 C-52.72951172 28.72538086 -52.72951172 28.72538086 -51.05078125 27.75976562 C-47.10571268 25.48415309 -43.17357285 23.18744157 -39.25 20.875 C-38.60474365 20.49480713 -37.9594873 20.11461426 -37.29467773 19.72290039 C-33.28712709 17.35778046 -29.28586191 14.98214517 -25.28515625 12.60546875 C-24.29547852 12.01846191 -23.30580078 11.43145508 -22.28613281 10.82666016 C-20.35077241 9.67847343 -18.41647005 8.52850079 -16.48339844 7.37646484 C-4.04820425 0 -4.04820425 0 0 0 Z " fill="#F6F6F6" transform="translate(276,106)"/>
<path d="M0 0 C1.13840332 0.00628418 1.13840332 0.00628418 2.29980469 0.01269531 C10.06072349 0.16985308 15.91938593 1.70918919 21.6875 7.3125 C25.94800236 13.19407155 25.62756434 19.32028587 24.6875 26.3125 C21.79892125 33.6344652 15.62684661 38.84282669 8.6875 42.3125 C10.02377995 45.31627806 11.45855036 47.29260789 13.875 49.51171875 C14.49117188 50.08083984 15.10734375 50.64996094 15.7421875 51.23632812 C16.38414062 51.81833984 17.02609375 52.40035156 17.6875 53 C18.32945312 53.59361328 18.97140625 54.18722656 19.6328125 54.79882812 C22.9110219 57.90701712 22.9110219 57.90701712 26.6875 60.3125 C26.955625 59.4875 27.22375 58.6625 27.5 57.8125 C28.81274922 53.94334439 30.23851284 50.13255706 31.6875 46.3125 C36.53409077 46.90354765 40.29498167 48.29194157 44.6875 50.3125 C43.95432931 56.32449965 41.83894905 61.21521779 38.9375 66.5 C37.51972645 69.09721811 37.51972645 69.09721811 37.82421875 71.25390625 C39.02072642 74.10711684 40.77205096 75.24766408 43.25 77.0625 C44.07628906 77.67609375 44.90257812 78.2896875 45.75390625 78.921875 C46.39199219 79.38078125 47.03007812 79.8396875 47.6875 80.3125 C46.01353695 84.904165 43.89366974 87.68446582 40.6875 91.3125 C36.77920915 90.7477699 34.78829777 88.89118029 31.9375 86.25 C31.13828125 85.51652344 30.3390625 84.78304687 29.515625 84.02734375 C28.61070312 83.17849609 28.61070312 83.17849609 27.6875 82.3125 C23.75533914 84.18839325 20.17208374 86.51599436 16.515625 88.875 C7.09665722 93.66254163 -5.16662208 93.74712352 -15.38671875 91.6953125 C-23.00722361 88.9916483 -29.82170885 83.46320466 -33.875 76.4375 C-36.32926771 70.57008788 -36.26977427 65.31221776 -34.34765625 59.2890625 C-30.89510593 51.34319306 -25.95782128 46.39320524 -18.3125 42.3125 C-17.3225 42.3125 -16.3325 42.3125 -15.3125 42.3125 C-16.7718508 39.82765945 -18.24543925 37.40664611 -19.91796875 35.05859375 C-24.41649848 28.49407258 -25.42121785 23.18782577 -24.3125 15.3125 C-22.55830952 9.50174405 -18.16371214 5.75988152 -13.3125 2.3125 C-8.99842462 0.03123501 -4.78237903 -0.03554895 0 0 Z " fill="#F5F5F5" transform="translate(445.3125,101.6875)"/>
<path d="M0 0 C2.29133773 1.54136173 4.03042852 3.03042852 6 5 C6 5.66 6 6.32 6 7 C6.99 7 7.98 7 9 7 C9.226875 6.40574219 9.45375 5.81148437 9.6875 5.19921875 C11.36854564 2.38246668 13.15985286 1.41833901 16 -0.1875 C17.3303125 -0.95126953 17.3303125 -0.95126953 18.6875 -1.73046875 C25.83673876 -5.65530422 36.42920241 -5.32878434 44.23828125 -3.05859375 C52.52310699 0.95181507 57.01870291 6.38458812 60.06762695 15.02587891 C61.41469697 19.87469574 61.26761228 24.71267294 61.23046875 29.7109375 C61.23001053 30.71967926 61.22955231 31.72842102 61.2290802 32.76773071 C61.22607207 34.88732081 61.21822919 37.00690899 61.20581055 39.12646484 C61.18744268 42.38516984 61.18530182 45.64359216 61.18554688 48.90234375 C61.1806354 50.96354414 61.1748087 53.0247426 61.16796875 55.0859375 C61.16685593 56.06501068 61.1657431 57.04408386 61.16459656 58.05282593 C61.15821671 58.95111115 61.15183685 59.84939636 61.14526367 60.77490234 C61.14145187 61.56875336 61.13764008 62.36260437 61.13371277 63.18051147 C61 65 61 65 60 66 C57.46950598 66.07313567 54.96695163 66.09247527 52.4375 66.0625 C51.37112305 66.05573242 51.37112305 66.05573242 50.28320312 66.04882812 C48.52209987 66.03700864 46.76103964 66.01907263 45 66 C44.99453156 65.17767128 44.99453156 65.17767128 44.98895264 64.33872986 C44.94700853 58.6115441 44.87758047 52.88515088 44.79248047 47.15844727 C44.76432651 45.02376244 44.74308435 42.88897444 44.72900391 40.75415039 C44.70749747 37.67801306 44.66080663 34.60310886 44.609375 31.52734375 C44.60814636 30.57915268 44.60691772 29.63096161 44.60565186 28.65403748 C44.47306748 22.59988145 43.5473711 18.95334135 40 14 C35.51948481 10.6122934 31.00481709 10.50320056 25.5625 10.62890625 C22.14176684 11.12428681 20.37360376 12.54982838 18 15 C17.34 15 16.68 15 16 15 C15.5359375 16.423125 15.5359375 16.423125 15.0625 17.875 C14 21 14 21 13 23 C12.88273341 24.38817673 12.82318594 25.78148714 12.79467773 27.17431641 C12.77473251 28.03505768 12.75478729 28.89579895 12.73423767 29.78262329 C12.71752518 30.71287323 12.70081268 31.64312317 12.68359375 32.6015625 C12.6524221 34.02896255 12.6524221 34.02896255 12.62062073 35.48519897 C12.55511867 38.53172432 12.4962372 41.57833743 12.4375 44.625 C12.39431541 46.68750916 12.35070114 48.75000937 12.30664062 50.8125 C12.1994366 55.87490954 12.09817098 60.93740755 12 66 C9.35409986 66.02684679 6.70846904 66.04676357 4.0625 66.0625 C3.30775391 66.07087891 2.55300781 66.07925781 1.77539062 66.08789062 C-0.14994313 66.09652441 -2.07535581 66.05224333 -4 66 C-6.14488409 63.85511591 -5.23572742 58.97530677 -5.28125 55.99609375 C-5.29965942 55.0842482 -5.31806885 54.17240265 -5.33703613 53.23292542 C-5.39597597 50.30118474 -5.44863505 47.36938257 -5.5 44.4375 C-5.5515772 41.53061869 -5.60467004 38.62381108 -5.66296387 35.71705627 C-5.69925686 33.9062085 -5.73176711 32.09527962 -5.7598877 30.2842865 C-5.86301264 25.12086404 -6.12957709 20.09649852 -7 15 C-8.69863938 13.48382093 -8.69863938 13.48382093 -11 13 C-11.70125 12.62875 -12.4025 12.2575 -13.125 11.875 C-18.70511338 10.17670462 -23.97423369 10.08267186 -29.3125 12.5 C-34.00157683 16.86193193 -37.17538452 21.33509431 -37.65942383 27.85546875 C-37.69999725 29.63242019 -37.71480398 31.4101024 -37.70703125 33.1875 C-37.72215256 34.13061035 -37.73727386 35.0737207 -37.75285339 36.04541016 C-37.79552569 39.03052055 -37.80454861 42.01461577 -37.8125 45 C-37.83566021 47.03518285 -37.86102869 49.07034185 -37.88867188 51.10546875 C-37.95132209 56.07040144 -37.98381711 61.03470724 -38 66 C-40.47923801 66.02685095 -42.9581884 66.04676547 -45.4375 66.0625 C-46.14455078 66.07087891 -46.85160156 66.07925781 -47.58007812 66.08789062 C-49.38693559 66.09653588 -51.19387603 66.05220011 -53 66 C-54 65 -54 65 -54.12025452 62.29820251 C-54.11803391 61.09241043 -54.11581329 59.88661835 -54.11352539 58.64428711 C-54.11367142 57.98089828 -54.11381744 57.31750946 -54.1139679 56.63401794 C-54.11326881 54.43176044 -54.10547665 52.22958655 -54.09765625 50.02734375 C-54.09579206 48.50419664 -54.09436816 46.98104893 -54.09336853 45.457901 C-54.08954346 41.44162349 -54.07971328 37.42538192 -54.06866455 33.40911865 C-54.05845019 29.31376634 -54.05387086 25.21840824 -54.04882812 21.12304688 C-54.03809099 13.08201288 -54.02049429 5.04101505 -54 -3 C-49.05 -3 -44.1 -3 -39 -3 C-39 -0.36 -39 2.28 -39 5 C-38.50371094 4.60167969 -38.00742187 4.20335937 -37.49609375 3.79296875 C-26.05727376 -5.12800851 -13.2185747 -7.52926141 0 0 Z " fill="#F4F4F4" transform="translate(783,127)"/>
<path d="M0 0 C6.46342869 5.26307765 12.31141232 12.00607063 13.375 20.5 C13.48221189 22.0401903 13.5653637 23.58223493 13.625 25.125 C13.68494141 26.26001953 13.68494141 26.26001953 13.74609375 27.41796875 C14.04787326 37.7317273 10.8606822 46.11705468 4.0625 53.91796875 C-4.58354445 62.00285166 -15.74869042 64.80887154 -27.2734375 64.53125 C-35.4978577 63.98581237 -43.50676511 60.32369111 -49.5 54.6875 C-52.3721935 51.39674564 -54.44897357 48.04583953 -56.375 44.125 C-56.9525 43.01125 -57.53 41.8975 -58.125 40.75 C-61.21180682 31.88620836 -60.78808709 20.94015013 -56.8125 12.5 C-51.00698473 2.64005296 -43.35655984 -2.86289152 -32.453125 -6.51953125 C-20.78503079 -8.51538947 -9.72583753 -6.88234313 0 0 Z " fill="#F5F5F5" transform="translate(919.375,129.875)"/>
<path d="M0 0 C0.33090186 7.38194556 0.55776577 14.76196969 0.71411133 22.1496582 C0.77930411 24.65949949 0.86788946 27.16885039 0.98071289 29.67700195 C1.86855609 49.9286652 1.86855609 49.9286652 -1.203125 54.97756958 C-4.55226086 58.46909557 -8.53958243 60.19488218 -13 62 C-14.35838367 62.84108748 -15.70048255 63.7104713 -17.0078125 64.62890625 C-18.03648437 65.26699219 -19.06515625 65.90507812 -20.125 66.5625 C-21.17945313 67.22378906 -22.23390625 67.88507813 -23.3203125 68.56640625 C-26 70 -26 70 -29 70 C-29 63.4 -29 56.8 -29 50 C-40.18389683 55.78150599 -50.98130663 61.8984306 -61.66357422 68.55322266 C-64.12209417 70.07560398 -66.59231927 71.57728025 -69.06640625 73.07421875 C-70.3049939 73.82469482 -70.3049939 73.82469482 -71.56860352 74.59033203 C-73.15791467 75.55263209 -74.74820716 76.51331375 -76.33959961 77.47216797 C-77.4089978 78.12209717 -77.4089978 78.12209717 -78.5 78.78515625 C-79.44359375 79.35568726 -79.44359375 79.35568726 -80.40625 79.93774414 C-82.16653812 81.03572469 -82.16653812 81.03572469 -84 83 C-84.99 83 -85.98 83 -87 83 C-90.90537075 59.58227818 -90.90537075 59.58227818 -87 50 C-81.26964586 42.04560235 -70.17362174 38.19589148 -61.45556641 34.50585938 C-57.41662381 32.74577757 -53.80474574 30.64873836 -50.125 28.25 C-43.08209003 23.99302524 -35.90358402 19.98679907 -28.72436523 15.96508789 C-21.5060877 11.90237424 -14.41477991 7.66627845 -7.40698242 3.25048828 C-2.20437163 0 -2.20437163 0 0 0 Z " fill="#F7F7F7" transform="translate(218,76)"/>
<path d="M0 0 C1.73949086 22.11638383 -5.28282919 43.94255161 -19.3828125 61.14453125 C-21.48891322 63.56095116 -23.64596252 65.82251533 -26 68 C-26.94875 68.886875 -27.8975 69.77375 -28.875 70.6875 C-44.60757234 83.86608333 -66.04753847 95 -87 95 C-87 86.09 -87 77.18 -87 68 C-75 63 -75 63 -69.875 61.0625 C-56.73504514 55.74793227 -43.40343597 45.9831133 -37 33 C-35.58442542 29.19690362 -34.2204162 25.41508348 -32.98046875 21.55078125 C-30.79590689 16.66061754 -26.4702001 14.59729978 -22 12 C-20.27145271 10.93079042 -18.5435978 9.86046076 -16.81640625 8.7890625 C-15.06649493 7.73206908 -13.31518377 6.67738981 -11.5625 5.625 C-10.21768555 4.80708984 -10.21768555 4.80708984 -8.84570312 3.97265625 C-7.99041016 3.45832031 -7.13511719 2.94398438 -6.25390625 2.4140625 C-5.48377197 1.9495166 -4.7136377 1.4849707 -3.92016602 1.00634766 C-2 0 -2 0 0 0 Z " fill="#F6F6F6" transform="translate(218,179)"/>
<path d="M0 0 C16.17 0 32.34 0 49 0 C49.12032643 16.89917833 49.12032643 16.89917833 49.14648438 24.13671875 C49.16437522 29.06341316 49.18547523 33.98993933 49.22631836 38.91650391 C49.25906131 42.89116249 49.27688429 46.86564048 49.28463173 50.84042358 C49.29014857 52.35219157 49.30092134 53.86395036 49.31719017 55.37564087 C49.46751082 69.93030712 49.46751082 69.93030712 46 77 C45.65839844 77.76570313 45.31679688 78.53140625 44.96484375 79.3203125 C41.62229391 85.19201603 37.09508805 88.22774918 31 91 C27.6875 91.875 27.6875 91.875 24 92 C23.03191406 92.06058594 22.06382812 92.12117188 21.06640625 92.18359375 C10.59448692 92.59062948 2.77199875 90.75336551 -5.1875 83.75 C-6.47359564 82.51570856 -7.75038569 81.27121258 -9 80 C-7.59023295 76.96147295 -5.91129772 74.4060405 -3.875 71.75 C-3.33617187 71.04359375 -2.79734375 70.3371875 -2.2421875 69.609375 C-1.62730469 68.81273437 -1.62730469 68.81273437 -1 68 C-0.57589844 68.39832031 -0.15179688 68.79664063 0.28515625 69.20703125 C6.50904388 74.82904842 12.11567898 77.62758104 20.62890625 77.35546875 C24.2087897 76.81878112 26.33934714 75.39458758 29 73 C30.99940343 69.8285547 31.26675669 67.30468939 31.31884766 63.58886719 C31.33871735 62.50804871 31.35858704 61.42723022 31.37905884 60.31365967 C31.39061005 59.15312073 31.40216125 57.99258179 31.4140625 56.796875 C31.43342865 55.60394836 31.4527948 54.41102173 31.4727478 53.1819458 C31.53253267 49.37136996 31.57892527 45.5607639 31.625 41.75 C31.66318072 39.16665348 31.7022325 36.58331968 31.7421875 34 C31.83987286 27.66673278 31.91945219 21.33360125 32 15 C21.44 15 10.88 15 0 15 C0 10.05 0 5.1 0 0 Z " fill="#F3F3F3" transform="translate(344,102)"/>
<path d="M0 0 C16.17 0 32.34 0 49 0 C49.16043524 17.06852664 49.16043524 17.06852664 49.1953125 24.39453125 C49.21914112 29.37598912 49.24720267 34.3571504 49.30175781 39.33837891 C49.34550616 43.35844784 49.36919761 47.37819831 49.37950897 51.39848709 C49.38684875 52.9253706 49.40118055 54.45223845 49.42292023 55.97898483 C49.56150993 66.12368485 48.59202153 74.01329745 43.3125 82.8125 C34.86602599 90.80240785 24.7069069 92.51255861 13.46484375 92.30859375 C4.26621843 91.48932498 -2.15095092 86.88952046 -9 81 C-8.39665691 77.29496359 -6.77525763 75.14031852 -4.4375 72.25 C-3.79683594 71.45078125 -3.15617187 70.6515625 -2.49609375 69.828125 C-2.00238281 69.22484375 -1.50867188 68.6215625 -1 68 C2.890625 69.75 2.890625 69.75 3.875 72 C4.90803237 74.32792664 4.90803237 74.32792664 8 75.1875 C9.485 75.5896875 9.485 75.5896875 11 76 C11.66 76.33 12.32 76.66 13 77 C18.03671207 77.55258891 21.92140903 77.53929549 26.5 75.25 C30.66645257 71.50019268 31.27092943 68.46448288 32 63 C32.19456043 59.23320037 32.25585595 55.46636085 32.31640625 51.6953125 C32.33718735 50.61619598 32.35796844 49.53707947 32.37937927 48.42526245 C32.44455113 44.99190389 32.5036089 41.55847147 32.5625 38.125 C32.60571601 35.79165915 32.64933127 33.45832566 32.69335938 31.125 C32.80094747 25.41674114 32.90026175 19.70842298 33 14 C22.11 14 11.22 14 0 14 C0 9.38 0 4.76 0 0 Z " fill="#F6F6F6" transform="translate(507,102)"/>
<path d="M0 0 C5.61 0 11.22 0 17 0 C17 25.41 17 50.82 17 77 C32.51 77 48.02 77 64 77 C64 81.62 64 86.24 64 91 C55.8030903 91.02255425 47.60620455 91.04091696 39.40927219 91.05181217 C35.60348423 91.0570402 31.79771852 91.06413638 27.99194336 91.07543945 C24.32207456 91.0862712 20.65222722 91.09227744 16.98234367 91.09487724 C15.57925008 91.09673097 14.17615771 91.1003506 12.7730732 91.10573006 C10.8143032 91.11294419 8.8555118 91.11340809 6.89672852 91.11352539 C5.77976089 91.115746 4.66279327 91.11796661 3.51197815 91.12025452 C1 91 1 91 0 90 C-0.09519368 87.2001028 -0.12553944 84.42493826 -0.11352539 81.62475586 C-0.11367142 80.74678848 -0.11381744 79.86882111 -0.1139679 78.96424866 C-0.11326844 76.04775565 -0.10547455 73.13132567 -0.09765625 70.21484375 C-0.09579218 68.19845108 -0.09436823 66.18205796 -0.09336853 64.16566467 C-0.08954244 58.84734862 -0.07971139 53.5290597 -0.06866455 48.21075439 C-0.05845238 42.78829312 -0.05387133 37.36582748 -0.04882812 31.94335938 C-0.0380892 21.29555906 -0.02049167 10.64778602 0 0 Z " fill="#F4F4F4" transform="translate(615,102)"/>
<path d="M0 0 C2.60160695 1.36253652 4.09359112 2.78814719 5.9921875 5.01953125 C6.57355469 5.68597656 7.15492188 6.35242188 7.75390625 7.0390625 C11.82038076 12.7239324 12.06606292 18.42893302 11.3046875 25.20703125 C9.35070094 31.75389343 6.24704478 37.42935706 0.3046875 41.01953125 C-5.4706661 43.16821119 -12.20528918 43.41309941 -18.03515625 41.3984375 C-23.43337467 38.40403227 -27.43089213 33.94630761 -29.6953125 28.20703125 C-30.90792499 20.66091753 -30.64407362 13.5770789 -26.28515625 7.1171875 C-19.21505937 -1.37735151 -10.79080892 -3.17468726 0 0 Z " fill="#060606" transform="translate(905.6953125,137.79296875)"/>
<path d="M0 0 C5.28 0 10.56 0 16 0 C16 22.77 16 45.54 16 69 C10.72 69 5.44 69 0 69 C0 46.23 0 23.46 0 0 Z " fill="#F2F2F2" transform="translate(691,124)"/>
<path d="M0 0 C5.1975 -0.1546875 5.1975 -0.1546875 10.5 -0.3125 C11.57572266 -0.35802002 12.65144531 -0.40354004 13.75976562 -0.45043945 C20.38260594 -0.54513874 24.97833749 0.51694102 30 5 C32.97825605 9.46738407 32.61273233 13.76188583 32 19 C30.98603139 21.70217409 30.04184287 22.84472142 28 25 C25.75 25.875 25.75 25.875 24 26 C26.10651271 29.65867997 28.44702126 33.00762063 31.01171875 36.3515625 C32 38 32 38 32 41 C29.75390625 41.375 29.75390625 41.375 27 41 C24.96484375 38.375 24.96484375 38.375 22.9375 35 C20.64159409 31.49527433 18.99693331 29.24444038 14.75 28.203125 C11.06972168 28.18750163 11.06972168 28.18750163 6 29 C5.67 32.96 5.34 36.92 5 41 C3.35 41 1.7 41 0 41 C0 27.47 0 13.94 0 0 Z " fill="#F1F1F1" transform="translate(422,227)"/>
<path d="M0 0 C44.59270801 -0.20578235 89.17136027 -0.28320398 133.7527771 0.86972809 C136.37511378 0.93750294 138.99748993 1.00356819 141.61987305 1.06951904 C145.72517471 1.17388107 149.83026397 1.28436578 153.93524551 1.40063286 C155.43212889 1.4428689 156.9290441 1.48399345 158.42599106 1.52391243 C160.4616911 1.57912215 162.49721167 1.64083571 164.53271484 1.70288086 C165.66832855 1.73619003 166.80394226 1.76949921 167.97396851 1.80381775 C170.74105095 1.98321194 173.30132844 2.38008164 176 3 C175.67 3.66 175.34 4.32 175 5 C117.25 5 59.5 5 0 5 C0 3.35 0 1.7 0 0 Z " fill="#808080" transform="translate(704,245)"/>
<path d="M0 0 C3.10576137 0.99627586 4.72003413 2.35876216 7.09375 4.58203125 C7.87363281 5.30648437 8.65351563 6.0309375 9.45703125 6.77734375 C11.87029674 9.09796102 14.25801239 11.4331656 16.59375 13.83203125 C17.14417969 14.32574219 17.69460938 14.81945312 18.26171875 15.328125 C19.96875 16.89453125 19.96875 16.89453125 22.59375 19.83203125 C22.49609375 21.87890625 22.49609375 21.87890625 21.59375 23.83203125 C19.88671875 25.0625 19.88671875 25.0625 17.78125 26.01953125 C17.09417969 26.34308594 16.40710938 26.66664063 15.69921875 27 C9.25165136 29.54792552 2.42989703 29.66273362 -4.40625 28.83203125 C-8.26843665 26.98884379 -11.46668528 24.71116069 -13.40625 20.83203125 C-13.8995852 16.51887208 -14.39401765 11.92252227 -12.5 7.9140625 C-9.47563211 4.14329613 -5.07786635 -0.35446145 0 0 Z " fill="#0A0A0A" transform="translate(439.40625,152.16796875)"/>
<path d="M0 0 C9.57 0 19.14 0 29 0 C29 1.65 29 3.3 29 5 C21.41 5 13.82 5 6 5 C6 9.29 6 13.58 6 18 C12.6 18 19.2 18 26 18 C26 19.65 26 21.3 26 23 C19.4 23 12.8 23 6 23 C6 26.96 6 30.92 6 35 C13.92 35 21.84 35 30 35 C30 36.65 30 38.3 30 40 C29 41 29 41 26.22436523 41.11352539 C25.01466064 41.10828857 23.80495605 41.10305176 22.55859375 41.09765625 C21.38353271 41.09515869 20.20847168 41.09266113 18.99780273 41.09008789 C17.49290283 41.08098389 15.98800293 41.07187988 14.4375 41.0625 C9.673125 41.041875 4.90875 41.02125 0 41 C0 27.47 0 13.94 0 0 Z " fill="#D3D3D3" transform="translate(581,227)"/>
<path d="M0 0 C9.24 0 18.48 0 28 0 C28 1.65 28 3.3 28 5 C20.74 5 13.48 5 6 5 C6 9.29 6 13.58 6 18 C12.27 18 18.54 18 25 18 C25 19.65 25 21.3 25 23 C18.73 23 12.46 23 6 23 C6 26.96 6 30.92 6 35 C13.59 35 21.18 35 29 35 C29 36.65 29 38.3 29 40 C19.43 40 9.86 40 0 40 C0 26.8 0 13.6 0 0 Z " fill="#EAEAEA" transform="translate(379,227)"/>
<path d="M0 0 C1.3303125 0.7425 1.3303125 0.7425 2.6875 1.5 C2.375 3.4375 2.375 3.4375 1.6875 5.5 C0.6975 5.83 -0.2925 6.16 -1.3125 6.5 C-1.91835938 6.19578125 -2.52421875 5.8915625 -3.1484375 5.578125 C-5.87295738 4.22078296 -7.90742497 4.23366536 -10.9375 4.25 C-11.89914062 4.24484375 -12.86078125 4.2396875 -13.8515625 4.234375 C-16.48947348 4.25887912 -16.48947348 4.25887912 -18.3125 6.5 C-18.47931109 9.58347826 -18.47931109 9.58347826 -18.3125 12.5 C-11.55565547 15.31316758 -11.55565547 15.31316758 -4.5625 17.4375 C-0.29097818 18.83395906 1.6453514 20.16105641 4.6875 23.5 C5.45967582 27.74696704 4.99049305 29.86977445 3.125 33.75 C-0.38525854 37.71029168 -3.57901438 39.17893807 -8.70703125 39.78125 C-14.56294438 39.9971362 -19.06552267 39.12348866 -24.3125 36.5 C-25.875 34.4375 -25.875 34.4375 -26.3125 32.5 C-25.9825 31.84 -25.6525 31.18 -25.3125 30.5 C-22.92685923 31.07584432 -20.64567216 31.72227595 -18.3125 32.5 C-16.1490832 32.64497123 -13.98057069 32.72070175 -11.8125 32.75 C-10.09546875 32.78867187 -10.09546875 32.78867187 -8.34375 32.828125 C-5.35670521 32.74003377 -5.35670521 32.74003377 -3.40625 31.234375 C-1.95688703 29.27784111 -1.95688703 29.27784111 -2.3125 25.5 C-6.65952296 23.42711405 -10.83149883 21.4931491 -15.5625 20.5 C-19.46385748 19.459638 -21.44061337 18.28485976 -24.3125 15.5 C-25.91556924 12.29386153 -25.79990461 8.97860003 -25.3125 5.5 C-20.0249032 -3.18676616 -8.89700679 -3.84686154 0 0 Z " fill="#EDEDED" transform="translate(361.3125,228.5)"/>
<path d="M0 0 C1.19625 -0.01675781 2.3925 -0.03351563 3.625 -0.05078125 C7.21409147 0.33554457 9.09716474 1.22883605 12 3.3125 C11.67 4.6325 11.34 5.9525 11 7.3125 C9.88625 7.065 9.88625 7.065 8.75 6.8125 C3.53161953 6.11671594 -1.74778991 5.84860719 -7 6.3125 C-9.34973818 8.21005144 -9.34973818 8.21005144 -9.125 11.4375 C-9.063125 12.860625 -9.063125 12.860625 -9 14.3125 C-5.2030371 16.467533 -1.68652073 17.70497058 2.5625 18.75 C6.87707916 19.86533339 9.82919459 21.03600108 13 24.3125 C14.43304064 27.17858129 14.30644155 29.12550783 14 32.3125 C12.12983216 36.28660666 10.31515488 38.48577248 6.3125 40.1875 C-2.35531301 42.86314653 -8.94644808 41.07867042 -17 37.3125 C-17 35.6625 -17 34.0125 -17 32.3125 C-13.87301482 32.75921217 -11.12968958 33.26062417 -8.1875 34.4375 C-2.994436 35.86304698 1.94090685 34.99886438 7 33.3125 C7.16681109 30.39597826 7.16681109 30.39597826 7 27.3125 C4.37471 24.68721 2.37417808 24.64082223 -1.25 23.9375 C-7.9233335 22.47747786 -12.10098377 21.16102434 -16 15.3125 C-16.44456411 10.71867081 -16.65588803 8.42993887 -14.3125 4.4375 C-9.94465146 0.42380134 -5.81063496 0.01878438 0 0 Z " fill="#EAEAEA" transform="translate(638,226.6875)"/>
<path d="M0 0 C3.25 2.25 3.25 2.25 3.953125 4.390625 C4.10007812 5.31101563 4.10007812 5.31101563 4.25 6.25 C2.0625 6.9375 2.0625 6.9375 -0.75 7.25 C-1.86375 6.5384375 -1.86375 6.5384375 -3 5.8125 C-6.9369119 3.57561824 -10.3192864 3.56718455 -14.75 4.25 C-18.39837196 5.55499459 -21.06295002 7.49646131 -23.6875 10.375 C-25.51244626 15.31308988 -25.62866052 20.28244842 -24.12890625 25.34765625 C-22.46343933 28.83403366 -20.44894305 30.73599547 -17 32.25 C-12.5403049 33.58707805 -9.26678556 33.36068497 -4.75 32.25 C-1.9799003 30.28490091 -1.9799003 30.28490091 0.25 28.25 C1.24 28.25 2.23 28.25 3.25 28.25 C3.745 31.22 3.745 31.22 4.25 34.25 C2.980447 34.89834654 1.70930294 35.54357815 0.4375 36.1875 C-0.62404297 36.72697266 -0.62404297 36.72697266 -1.70703125 37.27734375 C-7.25804034 39.920176 -12.38193884 39.81214598 -18.25 38.25 C-24.26773801 36.08978636 -28.19354677 31.50964279 -30.91015625 25.8203125 C-32.6559035 20.47751394 -32.87833846 14.94639706 -30.6875 9.7109375 C-23.82648889 -1.43820555 -12.38005503 -5.58883779 0 0 Z " fill="#EAEAE9" transform="translate(563.75,228.75)"/>
<path d="M0 0 C1.65 0 3.3 0 5 0 C8.84581316 7.43805623 12.36494043 14.9499786 15.63891602 22.65429688 C16.91728661 25.63999175 18.19203305 28.28804958 20 31 C23.43981447 24.51558378 26.22675195 17.94685792 28.796875 11.07421875 C30.29961919 7.2344146 32.07190357 3.64195992 34 0 C35.65 0 37.3 0 39 0 C38.71185276 4.41825769 37.85142307 7.57618544 35.78125 11.5 C32.8229607 17.26810736 30.24439782 23.17026907 27.6875 29.125 C27.0059082 30.7028125 27.0059082 30.7028125 26.31054688 32.3125 C25.20448179 34.87391388 24.1010156 37.43641258 23 40 C20.12890625 40.13671875 20.12890625 40.13671875 17 40 C12.85728471 35.60621105 11.28909166 29.75820192 9.22265625 24.171875 C8.24322499 21.63098624 7.20355924 19.27803009 5.9375 16.875 C0 5.53316327 0 5.53316327 0 0 Z " fill="#E9E9E9" transform="translate(463,227)"/>
<path d="M0 0 C3.0625 1.5625 3.0625 1.5625 5 4 C6.33096238 8.22776284 6.4309792 10.13804159 4.4375 14.125 C1.70174693 17.35178567 -0.46040339 19.66386624 -4 22 C-7.125 22.125 -7.125 22.125 -10 21 C-12.95943354 18.04056646 -14.91348036 15.04975501 -16 11 C-15.9201356 7.16650874 -15.21185283 5.31436226 -13.0625 2.125 C-8.73153062 -0.88016243 -5.12022228 -0.89120454 0 0 Z " fill="#090909" transform="translate(451,113)"/>
<path d="M0 0 C1.84851563 -0.05607422 1.84851563 -0.05607422 3.734375 -0.11328125 C7.81267893 0.38064667 9.3769849 1.4448053 12.25 4.3125 C13.79586876 7.40423752 13.54359521 9.90679552 13.25 13.3125 C11.03136971 16.21967073 9.73055071 17.15231643 6.25 18.3125 C3.85509014 18.38220052 1.45832309 18.39698003 -0.9375 18.375 C-2.20980469 18.36597656 -3.48210937 18.35695312 -4.79296875 18.34765625 C-6.25669922 18.33025391 -6.25669922 18.33025391 -7.75 18.3125 C-7.77684312 15.49993719 -7.79676188 12.68762759 -7.8125 9.875 C-7.82087891 9.07255859 -7.82925781 8.27011719 -7.83789062 7.44335938 C-7.8465143 5.39954779 -7.8022815 3.35566098 -7.75 1.3125 C-5.82815673 -0.60934327 -2.55710692 0.05039941 0 0 Z " fill="#090909" transform="translate(434.75,231.6875)"/>
<path d="M0 0 C3.24078842 3.09005408 3.79473612 4.91418147 3.96875 9.30078125 C3.60174609 12.25210432 2.59295599 14.40503293 0.48046875 16.5234375 C-3.26890672 18.69627819 -7.1813964 18.44967143 -11.3125 17.5625 C-14.42449254 15.57082478 -15.92554528 14.29159499 -16.74609375 10.625 C-16.98360222 6.82486456 -16.53124465 4.9170172 -14.5 1.625 C-10.10082212 -2.52279628 -5.32904447 -2.3126042 0 0 Z " fill="#F6F6F6" transform="translate(705.3125,94.4375)"/>
<path d="M0 0 C7.18227507 -0.04706295 14.36451506 -0.08223393 21.54691505 -0.10362434 C24.88470744 -0.11390864 28.22231112 -0.12892822 31.56005859 -0.15087891 C49.78337361 -0.26756303 68.00497944 -0.2442858 86 3 C86 3.33 86 3.66 86 4 C57.62 4 29.24 4 0 4 C0 2.68 0 1.36 0 0 Z " fill="#F8F8F8" transform="translate(705,246)"/>
<path d="M0 0 C3 1 3 1 4 3 C4.49988513 8.01524102 5.00045732 13.20269608 2.25 17.625 C0.05671496 19.94013421 -0.8676555 20.77626111 -4 21 C-1.89348729 24.65867997 0.44702126 28.00762063 3.01171875 31.3515625 C4 33 4 33 4 36 C1.77734375 36.37109375 1.77734375 36.37109375 -1 36 C-2.70972406 34.02861382 -4.05462339 32.24195312 -5.4375 30.0625 C-8.38324636 25.29176672 -8.38324636 25.29176672 -13.28515625 23.12109375 C-14.18105469 23.08113281 -15.07695312 23.04117188 -16 23 C-15.01 22.01 -14.02 21.02 -13 20 C-15.97 19.67 -18.94 19.34 -22 19 C-22 18.67 -22 18.34 -22 18 C-20.67935547 17.92652344 -20.67935547 17.92652344 -19.33203125 17.8515625 C-18.17058594 17.77679688 -17.00914062 17.70203125 -15.8125 17.625 C-14.66394531 17.55539063 -13.51539063 17.48578125 -12.33203125 17.4140625 C-9.17304206 17.02150347 -6.8281068 16.43731936 -4 15 C-2.79727181 12.59454362 -2.89928528 11.05003047 -2.9375 8.375 C-2.94652344 7.55773437 -2.95554687 6.74046875 -2.96484375 5.8984375 C-2.97644531 5.27195313 -2.98804688 4.64546875 -3 4 C-2.01 4.33 -1.02 4.66 0 5 C0 4.01 0 3.02 0 2 C-0.66 1.67 -1.32 1.34 -2 1 C-1.34 0.67 -0.68 0.34 0 0 Z " fill="#EAEAEA" transform="translate(450,232)"/>
<path d="M0 0 C1.98 0 3.96 0 6 0 C6 13.2 6 26.4 6 40 C4.02 40 2.04 40 0 40 C0 26.8 0 13.6 0 0 Z " fill="#E5E5E5" transform="translate(513,227)"/>
<path d="M0 0 C18.33888884 -0.10074609 36.6678564 -0.12884884 55 0.4375 C56.01767456 0.4669722 56.01767456 0.4669722 57.0559082 0.49703979 C68.93722345 0.84952848 68.93722345 0.84952848 74 2 C73.67 2.66 73.34 3.32 73 4 C57.16 4 41.32 4 25 4 C24.67 3.34 24.34 2.68 24 2 C16.08 1.67 8.16 1.34 0 1 C0 0.67 0 0.34 0 0 Z " fill="#7E7E7D" transform="translate(806,246)"/>
<path d="M0 0 C26.4101211 -0.27455544 52.63917586 0.35681865 79 2 C79.495 2.99 79.495 2.99 80 4 C73.80697799 4.04944073 67.61407091 4.08573905 61.42089844 4.10986328 C59.31410725 4.11992034 57.20733001 4.13356768 55.10058594 4.15087891 C52.07223059 4.17514 49.04405981 4.18648608 46.015625 4.1953125 C45.07382385 4.20563507 44.13202271 4.21595764 43.16168213 4.22659302 C42.28107117 4.22674408 41.40046021 4.22689514 40.49316406 4.22705078 C39.72039124 4.231492 38.94761841 4.23593323 38.15142822 4.24050903 C35.71501046 3.9681409 34.1592972 3.12455434 32 2 C29.50412889 1.76536081 27.10788277 1.62842258 24.609375 1.5859375 C23.90476135 1.56657135 23.20014771 1.5472052 22.47418213 1.5272522 C20.23290961 1.46767265 17.99158511 1.42115877 15.75 1.375 C14.22654062 1.33680021 12.70310238 1.29774731 11.1796875 1.2578125 C7.45331894 1.16198982 3.72679165 1.07787893 0 1 C0 0.67 0 0.34 0 0 Z " fill="#303030" transform="translate(843,246)"/>
<path d="M0 0 C2.38564077 0.57584432 4.66682784 1.22227595 7 2 C10.18436355 2.19364373 13.3619082 2.34465089 16.55078125 2.4296875 C21.57467648 2.66750503 21.57467648 2.66750503 23.96875 4.5390625 C24.3090625 5.02117187 24.649375 5.50328125 25 6 C19.6767205 9.36207126 15.10600077 9.6951447 9 9 C5.16002724 8.11974046 1.90305026 7.19202634 -0.5625 3.9375 C-1 2 -1 2 0 0 Z " fill="#EBEBEB" transform="translate(336,259)"/>
<path d="M0 0 C0.33 0.66 0.66 1.32 1 2 C0.21625 2.721875 -0.5675 3.44375 -1.375 4.1875 C-4.08789483 6.71204135 -4.08789483 6.71204135 -4.8515625 9.46875 C-6.32454491 12.71532347 -7.92299076 13.5816823 -11 15.3125 C-11.886875 15.82425781 -12.77375 16.33601563 -13.6875 16.86328125 C-16 18 -16 18 -18 18 C-19.38232443 16.37373596 -20.71937515 14.7074998 -22 13 C-20.31397777 9.62795554 -16.53489739 8.63844109 -13.25 7.0625 C-8.7190841 4.86630965 -4.27102078 2.68199927 0 0 Z " fill="#0F0F0F" transform="translate(214,173)"/>
<path d="M0 0 C19.8 0 39.6 0 60 0 C60 0.66 60 1.32 60 2 C52.47266068 2.20001597 44.94507461 2.38375751 37.41684151 2.54658794 C33.92135566 2.62270745 30.42619094 2.70447953 26.93115234 2.79907227 C22.91530532 2.90751477 18.8992732 2.99154423 14.8828125 3.07421875 C12.99527756 3.1302552 12.99527756 3.1302552 11.0696106 3.18742371 C9.90855804 3.20767105 8.74750549 3.2279184 7.55126953 3.2487793 C6.01238571 3.28541939 6.01238571 3.28541939 4.44241333 3.32279968 C3.23341873 3.16301384 3.23341873 3.16301384 2 3 C1.34 2.01 0.68 1.02 0 0 Z " fill="#0A0A0A" transform="translate(616,193)"/>
<path d="M0 0 C18.78859311 -0.1932541 37.3847217 0.28801462 56 3 C56 3.33 56 3.66 56 4 C27.60023248 4.38647229 27.60023248 4.38647229 16.21875 2.51171875 C10.84480726 1.6573662 5.42668815 1.3477473 0 1 C0 0.67 0 0.34 0 0 Z " fill="#B4B4B3" transform="translate(763,246)"/>
<path d="M0 0 C7.26 0 14.52 0 22 0 C22 1.32 22 2.64 22 4 C12.76 4 3.52 4 -6 4 C-5.67 3.01 -5.34 2.02 -5 1 C-3.02 1.495 -3.02 1.495 -1 2 C-0.67 1.34 -0.34 0.68 0 0 Z " fill="#F7F7F7" transform="translate(588,263)"/>
<path d="M0 0 C14.66695348 -0.37823089 29.54723088 0.33512064 44 3 C44 3.33 44 3.66 44 4 C29.00009267 4.33987705 14.6992831 4.19054207 0 1 C0 0.67 0 0.34 0 0 Z " fill="#D6D6D6" transform="translate(747,246)"/>
<path d="M0 0 C4.22915217 -0.02908633 8.45827852 -0.04682792 12.6875 -0.0625 C13.88568359 -0.07087891 15.08386719 -0.07925781 16.31835938 -0.08789062 C18.05375977 -0.09272461 18.05375977 -0.09272461 19.82421875 -0.09765625 C20.88729248 -0.10289307 21.95036621 -0.10812988 23.0456543 -0.11352539 C25.8134509 -0.00716844 28.30792897 0.37105212 31 1 C30.67 1.66 30.34 2.32 30 3 C20.43 3 10.86 3 1 3 C0.67 2.01 0.34 1.02 0 0 Z " fill="#707070" transform="translate(849,247)"/>
<path d="M0 0 C8.58 0 17.16 0 26 0 C26 0.99 26 1.98 26 3 C18.307359 3.84800767 10.73708326 4.12152487 3 4 C2.67 3.34 2.34 2.68 2 2 C1.01 2.495 1.01 2.495 0 3 C0 2.01 0 1.02 0 0 Z " fill="#FBFBFB" transform="translate(583,228)"/>
<path d="M0 0 C2.31327974 2.82734191 4.56720469 5.69594988 6.75 8.625 C7.39195312 9.47964844 7.39195312 9.47964844 8.046875 10.3515625 C9 12 9 12 9 15 C6.80078125 15.375 6.80078125 15.375 4 15 C2.13548243 13.00801938 0.69707209 11.23044928 -0.8125 9 C-1.42254883 8.14148438 -1.42254883 8.14148438 -2.04492188 7.265625 C-3.04474232 5.85411379 -4.02438622 4.42834959 -5 3 C-4.360625 2.690625 -3.72125 2.38125 -3.0625 2.0625 C-1.06389179 1.1654837 -1.06389179 1.1654837 0 0 Z " fill="#E3E3E3" transform="translate(445,253)"/>
<path d="M0 0 C16.03092418 -0.13960478 31.98877702 0.1934325 48 1 C48.495 2.485 48.495 2.485 49 4 C41.73162374 4.24778555 34.7939267 3.7968719 27.59375 2.78613281 C18.44460186 1.56653574 9.21629521 1.33068971 0 1 C0 0.67 0 0.34 0 0 Z " fill="#9A9A99" transform="translate(782,246)"/>
<path d="M0 0 C-0.75 6.75 -0.75 6.75 -3 9 C-7.39456911 10.57541157 -10.48011455 11.36966226 -15 10 C-13.64625203 5.93875609 -11.73741172 5.39684351 -8.0625 3.3125 C-6.98097656 2.68988281 -5.89945313 2.06726563 -4.78515625 1.42578125 C-2 0 -2 0 0 0 Z " fill="#F0F0F0" transform="translate(218,179)"/>
<path d="M0 0 C6.27 0 12.54 0 19 0 C19 1.32 19 2.64 19 4 C12.73 4 6.46 4 0 4 C0 2.68 0 1.36 0 0 Z " fill="#F8F8F8" transform="translate(385,245)"/>
<path d="M0 0 C13.02640027 -0.17015617 25.99123875 0.35708541 39 1 C39.495 1.99 39.495 1.99 40 3 C35.77089411 3.05907207 31.54189711 3.09395041 27.3125 3.125 C25.54422852 3.15013672 25.54422852 3.15013672 23.74023438 3.17578125 C15.64005941 3.22016577 7.96407765 2.47369081 0 1 C0 0.67 0 0.34 0 0 Z " fill="#1A1A1A" transform="translate(883,247)"/>
<path d="M0 0 C0.99 0 1.98 0 3 0 C3.33 1.98 3.66 3.96 4 6 C2.76115681 6.72767003 1.50831659 7.43154815 0.25 8.125 C-0.79414062 8.71667969 -0.79414062 8.71667969 -1.859375 9.3203125 C-4 10 -4 10 -6.265625 9.1171875 C-7.12414062 8.56417969 -7.12414062 8.56417969 -8 8 C-8 7.01 -8 6.02 -8 5 C-7.05125 4.54625 -6.1025 4.0925 -5.125 3.625 C-1.99686321 2.19761746 -1.99686321 2.19761746 0 0 Z " fill="#F3F3F3" transform="translate(564,257)"/>
<path d="M0 0 C0.95390625 -0.01417969 1.9078125 -0.02835938 2.890625 -0.04296875 C5.87699459 0.1977359 8.04370741 0.938062 10.75 2.1875 C9.76 3.6725 9.76 3.6725 8.75 5.1875 C8.42 4.1975 8.09 3.2075 7.75 2.1875 C7.358125 2.661875 6.96625 3.13625 6.5625 3.625 C4.34191626 5.53929633 2.61624291 5.80016988 -0.25 6.1875 C-0.58 5.1975 -0.91 4.2075 -1.25 3.1875 C-1.91 3.1875 -2.57 3.1875 -3.25 3.1875 C-3.25 3.8475 -3.25 4.5075 -3.25 5.1875 C-5.25 4.1875 -5.25 4.1875 -6.25 1.1875 C-4.53783874 -0.52466126 -2.33192944 0.01558776 0 0 Z " fill="#141412" transform="translate(811.25,136.8125)"/>
<path d="M0 0 C0.33 0 0.66 0 1 0 C1 13.2 1 26.4 1 40 C2.98 40 4.96 40 7 40 C7 40.33 7 40.66 7 41 C1.62694301 41.96891192 1.62694301 41.96891192 -1 42 C-3 40.5625 -3 40.5625 -4 39 C-3.67 38.34 -3.34 37.68 -3 37 C-2.34 37.33 -1.68 37.66 -1 38 C-0.67 25.46 -0.34 12.92 0 0 Z " fill="#212121" transform="translate(512,227)"/>
<path d="M0 0 C0.53109375 0.14308594 1.0621875 0.28617187 1.609375 0.43359375 C4.47311231 1.1120936 7.34547652 1.58893639 10.25 2.0625 C11.32765625 2.23910156 12.4053125 2.41570312 13.515625 2.59765625 C14.33546875 2.73042969 15.1553125 2.86320312 16 3 C16 3.33 16 3.66 16 4 C13.36 4 10.72 4 8 4 C8.33 5.32 8.66 6.64 9 8 C4.78087253 7.5205537 2.20336822 6.83374881 -1 4 C-0.67 2.68 -0.34 1.36 0 0 Z " fill="#C9C9C9" transform="translate(336,259)"/>
<path d="M0 0 C3.125 0.375 3.125 0.375 6 1 C6.33 2.32 6.66 3.64 7 5 C5.25 6.125 5.25 6.125 3 7 C1.66216247 6.34241884 0.32945756 5.67436253 -1 5 C-3.35564596 4.55188863 -3.35564596 4.55188863 -5.75 4.375 C-6.94882812 4.26285156 -6.94882812 4.26285156 -8.171875 4.1484375 C-8.77515625 4.09945312 -9.3784375 4.05046875 -10 4 C-10 3.67 -10 3.34 -10 3 C-8.72125 2.87625 -7.4425 2.7525 -6.125 2.625 C-2.65209064 2.30957601 -2.65209064 2.30957601 0 0 Z " fill="#DADADA" transform="translate(357,228)"/>
<path d="M0 0 C0.3190184 7.01840491 0.3190184 7.01840491 -2 10 C-4.625 10.75 -4.625 10.75 -7 11 C-6.25 4.375 -6.25 4.375 -4 1 C-1 0 -1 0 0 0 Z " fill="#F2F2F2" transform="translate(493,245)"/>
<path d="M0 0 C-1.66666667 1.66666667 -3.33333333 3.33333333 -5 5 C-5.680625 5.78375 -6.36125 6.5675 -7.0625 7.375 C-7.701875 7.91125 -8.34125 8.4475 -9 9 C-11.25 8.75 -11.25 8.75 -13 8 C-11.60632076 4.62772951 -10.15724701 3.09506287 -7.0625 1.1875 C-6.37285156 0.74792969 -5.68320313 0.30835938 -4.97265625 -0.14453125 C-3 -1 -3 -1 0 0 Z " fill="#0F0F0F" transform="translate(150,150)"/>
<path d="M0 0 C1.04973814 4.19895255 0.72795155 6.79405774 0 11 C-0.99 11 -1.98 11 -3 11 C-3 11.66 -3 12.32 -3 13 C-3.66 13 -4.32 13 -5 13 C-5.33 12.34 -5.66 11.68 -6 11 C-6.8971875 11.3403125 -6.8971875 11.3403125 -7.8125 11.6875 C-8.534375 11.790625 -9.25625 11.89375 -10 12 C-10.99 11.01 -11.98 10.02 -13 9 C-9.7 9 -6.4 9 -3 9 C-2.01 6.03 -1.02 3.06 0 0 Z " fill="#212121" transform="translate(489,258)"/>
<path d="M0 0 C3.63 0 7.26 0 11 0 C11 1.32 11 2.64 11 4 C6.38 4 1.76 4 -3 4 C-2.01 3.01 -1.02 2.02 0 1 C0 0.67 0 0.34 0 0 Z " fill="#FBFBFB" transform="translate(595,245)"/>
<path d="M0 0 C7.26 0 14.52 0 22 0 C22 0.33 22 0.66 22 1 C13.585 1.495 13.585 1.495 5 2 C5.33 2.99 5.66 3.98 6 5 C4.68 5 3.36 5 2 5 C1.67 5.99 1.34 6.98 1 8 C0.67 8 0.34 8 0 8 C0 5.36 0 2.72 0 0 Z " fill="#282828" transform="translate(385,232)"/>
<path d="M0 0 C0.33 0 0.66 0 1 0 C1.33 9.9 1.66 19.8 2 30 C2.99 29.67 3.98 29.34 5 29 C4.34 30.32 3.68 31.64 3 33 C2.01 33 1.02 33 0 33 C0 22.11 0 11.22 0 0 Z " fill="#C2C2C2" transform="translate(131,126)"/>
<path d="M0 0 C1.65322266 0.01740234 1.65322266 0.01740234 3.33984375 0.03515625 C4.99693359 0.04869141 4.99693359 0.04869141 6.6875 0.0625 C7.54214844 0.07410156 8.39679688 0.08570313 9.27734375 0.09765625 C8.61734375 0.75765625 7.95734375 1.41765625 7.27734375 2.09765625 C4.54864968 2.06478042 1.98068195 1.53367854 -0.72265625 1.09765625 C-0.72265625 3.73765625 -0.72265625 6.37765625 -0.72265625 9.09765625 C-1.38265625 9.09765625 -2.04265625 9.09765625 -2.72265625 9.09765625 C-3.05265625 10.08765625 -3.38265625 11.07765625 -3.72265625 12.09765625 C-3.74952904 10.28523573 -3.7689934 8.47270392 -3.78515625 6.66015625 C-3.79675781 5.65082031 -3.80835938 4.64148438 -3.8203125 3.6015625 C-3.68353101 0.09448515 -3.5276627 0.12653023 0 0 Z " fill="#292929" transform="translate(430.72265625,254.90234375)"/>
<path d="M0 0 C-2.90507321 2.42089434 -5.63147043 4.31573522 -9 6 C-9.33 6.66 -9.66 7.32 -10 8 C-12.5625 8.625 -12.5625 8.625 -15 9 C-13.52519903 5.17551612 -11.54705088 3.74957636 -8.0625 1.6875 C-7.18722656 1.15511719 -6.31195313 0.62273437 -5.41015625 0.07421875 C-3 -1 -3 -1 0 0 Z " fill="#E5E5E5" transform="translate(202,190)"/>
<path d="M0 0 C2.56780471 3.8415976 2.22688882 7.8139175 2.125 12.25 C2.11597656 12.99507812 2.10695313 13.74015625 2.09765625 14.5078125 C2.07418358 16.33868059 2.03831525 18.16938238 2 20 C-1.38811921 16.45139093 -1.35003669 13.66675766 -1.25 8.875 C-1.23453125 7.63492188 -1.2190625 6.39484375 -1.203125 5.1171875 C-1 2 -1 2 0 0 Z " fill="#444444" transform="translate(877,150)"/>
<path d="M0 0 C2.06242617 -0.02717692 4.12495703 -0.0464758 6.1875 -0.0625 C7.33605469 -0.07410156 8.48460937 -0.08570313 9.66796875 -0.09765625 C12.59300586 -0.01192832 15.16316291 0.32150977 18 1 C17.67 1.66 17.34 2.32 17 3 C13.04 3 9.08 3 5 3 C5 2.67 5 2.34 5 2 C3.35 1.67 1.7 1.34 0 1 C0 0.67 0 0.34 0 0 Z " fill="#595959" transform="translate(862,247)"/>
<path d="M0 0 C0.33 0 0.66 0 1 0 C1.06058594 0.83144531 1.12117188 1.66289062 1.18359375 2.51953125 C1.26738281 3.60621094 1.35117187 4.69289062 1.4375 5.8125 C1.51871094 6.89144531 1.59992188 7.97039062 1.68359375 9.08203125 C1.90212461 12.05989905 1.90212461 12.05989905 3 15 C6.63 15.33 10.26 15.66 14 16 C14 16.33 14 16.66 14 17 C9.38 17 4.76 17 0 17 C0 11.39 0 5.78 0 0 Z " fill="#494949" transform="translate(427,233)"/>
<path d="M0 0 C2.56280208 0.14154136 5.12515485 0.28808562 7.6875 0.4375 C8.40873047 0.47681641 9.12996094 0.51613281 9.87304688 0.55664062 C13.66707282 0.78185678 17.28651492 1.12839305 21 2 C21 2.33 21 2.66 21 3 C18.24940619 3.08107646 15.50120979 3.14052813 12.75 3.1875 C11.58404297 3.22520508 11.58404297 3.22520508 10.39453125 3.26367188 C4.57002825 3.33834499 4.57002825 3.33834499 1.453125 1.48828125 C0.73382812 0.75158203 0.73382812 0.75158203 0 0 Z " fill="#424242" transform="translate(875,247)"/>
<path d="M0 0 C0.99 0.66 1.98 1.32 3 2 C2.5359375 3.0828125 2.5359375 3.0828125 2.0625 4.1875 C1.07439461 6.80307309 0.4712246 9.25118982 0 12 C-0.33 12 -0.66 12 -1 12 C-1.66 10.02 -2.32 8.04 -3 6 C-3.66 6 -4.32 6 -5 6 C-3.63016497 2.83884224 -3.0109362 2.0072908 0 0 Z " fill="#DEDEDE" transform="translate(342,228)"/>
<path d="M0 0 C2.125 0.9375 2.125 0.9375 4 2 C3.67 2.99 3.34 3.98 3 5 C-0.41270242 6.51675663 -3.44169126 5.72783588 -7 5 C-2.25 1.125 -2.25 1.125 0 0 Z " fill="#101010" transform="translate(703,88)"/>
<path d="M0 0 C5.28 0 10.56 0 16 0 C16 0.66 16 1.32 16 2 C17.65 2 19.3 2 21 2 C21 2.33 21 2.66 21 3 C13.83437211 3.28100502 7.05453001 2.20443195 0 1 C0 0.67 0 0.34 0 0 Z " fill="#2D2D2D" transform="translate(883,247)"/>
<path d="M0 0 C1.3515243 4.8992756 0.75429081 9.00282342 0 14 C-0.99 14 -1.98 14 -3 14 C-4 12 -4 12 -3.22265625 9.1796875 C-2.83980469 8.08914062 -2.45695312 6.99859375 -2.0625 5.875 C-1.68222656 4.77929688 -1.30195313 3.68359375 -0.91015625 2.5546875 C-0.60980469 1.71164063 -0.30945313 0.86859375 0 0 Z " fill="#222222" transform="translate(271,238)"/>
<path d="M0 0 C0.33 0.99 0.66 1.98 1 3 C0.01 4.485 0.01 4.485 -1 6 C-2.10540926 8.78918149 -2.10540926 8.78918149 -2 11 C-6 11 -6 11 -9 10 C-8.34 10 -7.68 10 -7 10 C-6.773125 9.46375 -6.54625 8.9275 -6.3125 8.375 C-4.56617944 5.21499137 -2.3597151 2.7323017 0 0 Z " fill="#1D1D1D" transform="translate(201,236)"/>
<path d="M0 0 C-1 3 -1 3 -3.1875 4.25 C-6.48226898 5.12860506 -8.70800962 4.76557916 -12 4 C-12.33 3.01 -12.66 2.02 -13 1 C-8.62426048 0.40667939 -4.42471556 -0.13827236 0 0 Z " fill="#1C1C1C" transform="translate(373,193)"/>
<path d="M0 0 C0.33 0.66 0.66 1.32 1 2 C1.99 2 2.98 2 4 2 C3.67 2.99 3.34 3.98 3 5 C2.01 4.67 1.02 4.34 0 4 C-2.0332721 5.47587704 -2.0332721 5.47587704 -4 7.5 C-6.0625 9.53125 -6.0625 9.53125 -8 11 C-8.99 10.67 -9.98 10.34 -11 10 C-10.18595703 9.41992188 -10.18595703 9.41992188 -9.35546875 8.828125 C-8.64003906 8.30734375 -7.92460938 7.7865625 -7.1875 7.25 C-6.47980469 6.73953125 -5.77210938 6.2290625 -5.04296875 5.703125 C-2.97022309 3.97517642 -1.52624146 2.21473524 0 0 Z " fill="#202020" transform="translate(927,178)"/>
<path d="M0 0 C2.05078125 0.03255208 4.1015625 0.06510417 6.15234375 0.09765625 C6.48234375 0.75765625 6.81234375 1.41765625 7.15234375 2.09765625 C4.01736083 3.9554239 1.77762943 4.29906101 -1.84765625 4.09765625 C-2.17765625 3.10765625 -2.50765625 2.11765625 -2.84765625 1.09765625 C-1.84765625 0.09765625 -1.84765625 0.09765625 0 0 Z " fill="#FBFBFB" transform="translate(430.84765625,250.90234375)"/>
<path d="M0 0 C6.75 0.75 6.75 0.75 9 3 C10.31747324 3.69748583 11.64914193 4.36959957 13 5 C10.69 5.66 8.38 6.32 6 7 C5.566875 6.21625 5.13375 5.4325 4.6875 4.625 C3.10779753 1.78301625 3.10779753 1.78301625 0 0 Z " fill="#171717" transform="translate(554,232)"/>
<path d="M0 0 C2.31 0 4.62 0 7 0 C7.66 1.32 8.32 2.64 9 4 C6.36 4 3.72 4 1 4 C0.67 2.68 0.34 1.36 0 0 Z " fill="#FAFAFA" transform="translate(550,227)"/>
<path d="M0 0 C1.67293936 0.30027117 3.33985384 0.63557767 5 1 C5.99 0.67 6.98 0.34 8 0 C8 4 8 4 6 7 C5.67 5.68 5.34 4.36 5 3 C2.69 2.67 0.38 2.34 -2 2 C-1.34 1.34 -0.68 0.68 0 0 Z " fill="#151515" transform="translate(463,224)"/>
<path d="M0 0 C0.66 0.33 1.32 0.66 2 1 C0.50902342 4.7952131 -1.75700849 6.61042731 -5 9 C-6.32 8.34 -7.64 7.68 -9 7 C-8.01 7 -7.02 7 -6 7 C-5.7525 6.401875 -5.505 5.80375 -5.25 5.1875 C-3.83629988 2.71352479 -2.34944617 1.56629745 0 0 Z " fill="#D5D5D5" transform="translate(798,127)"/>
<path d="M0 0 C-1.20381448 2.49361571 -2.45428722 4.68143083 -4 7 C-6.625 7.1875 -6.625 7.1875 -9 7 C-9 6.01 -9 5.02 -9 4 C-2.25 0 -2.25 0 0 0 Z " fill="#E6E6E6" transform="translate(250,120)"/>
<path d="M0 0 C0.33 1.98 0.66 3.96 1 6 C-0.98 6.99 -0.98 6.99 -3 8 C-4 5 -4 5 -4 4 C-4.66 3.67 -5.32 3.34 -6 3 C-3.375 0 -3.375 0 0 0 Z " fill="#D2D2D2" transform="translate(567,257)"/>
<path d="M0 0 C0.75 1.5625 0.75 1.5625 1 4 C-0.13084437 6.50286409 -1.52139516 8.67007722 -3 11 C-3.66 11 -4.32 11 -5 11 C-4.54663921 6.12637153 -3.2910841 3.60957611 0 0 Z " fill="#1C1C1C" transform="translate(492,184)"/>
<path d="M0 0 C0.66 0 1.32 0 2 0 C3.30042194 4.62372246 2.85486376 8.33710678 2 13 C1.01 13.495 1.01 13.495 0 14 C0 9.38 0 4.76 0 0 Z " fill="#373735" transform="translate(679,179)"/>
<path d="M0 0 C3.81684226 1.55500981 6.19195732 4.03595495 9 7 C8.01 7.495 8.01 7.495 7 8 C6.443125 7.54625 5.88625 7.0925 5.3125 6.625 C2.94686561 4.96266232 0.70984342 3.97855457 -2 3 C-1.34 2.01 -0.68 1.02 0 0 Z " fill="#1E1E1E" transform="translate(471,183)"/>
<path d="M0 0 C-0.639375 0.28875 -1.27875 0.5775 -1.9375 0.875 C-4.15206079 1.82823451 -4.15206079 1.82823451 -5 4 C-8.875 2.25 -8.875 2.25 -10 0 C-6.22996568 -2.61002376 -4.07631429 -1.66758312 0 0 Z " fill="#E1E1E1" transform="translate(347,243)"/>
<path d="M0 0 C3 1 3 1 4 3 C4.07033769 4.87379605 4.0843022 6.75001102 4.0625 8.625 C4.05347656 9.62789062 4.04445313 10.63078125 4.03515625 11.6640625 C4.02355469 12.43492187 4.01195312 13.20578125 4 14 C3.67 14 3.34 14 3 14 C2.67 11.03 2.34 8.06 2 5 C1.34 5 0.68 5 0 5 C0 4.01 0 3.02 0 2 C-0.66 1.67 -1.32 1.34 -2 1 C-1.34 0.67 -0.68 0.34 0 0 Z " fill="#E1E1E1" transform="translate(450,232)"/>
<path d="M0 0 C4.29 0.33 8.58 0.66 13 1 C13 1.66 13 2.32 13 3 C8.91556885 4.53166168 5.20544343 3.63081652 1 3 C0.67 2.01 0.34 1.02 0 0 Z " fill="#0D0D0D" transform="translate(778,192)"/>
<path d="M0 0 C0.75 1.75 0.75 1.75 1 4 C-0.8125 6.0625 -0.8125 6.0625 -3 8 C-3.99 9.485 -3.99 9.485 -5 11 C-6.32 10.34 -7.64 9.68 -9 9 C-8.21625 8.7525 -7.4325 8.505 -6.625 8.25 C-3.5988084 6.80895638 -3.19298128 6.02833711 -2 3 C-1.34 2.01 -0.68 1.02 0 0 Z " fill="#282828" transform="translate(552,180)"/>
<path d="M0 0 C0.66 0.99 1.32 1.98 2 3 C1.34 3 0.68 3 0 3 C-0.66 4.98 -1.32 6.96 -2 9 C-3.98 9 -5.96 9 -8 9 C-6.8553125 7.88625 -6.8553125 7.88625 -5.6875 6.75 C-3.5606298 4.5736677 -1.7440044 2.47832204 0 0 Z " fill="#1C1C1C" transform="translate(467,132)"/>
<path d="M0 0 C1.98 0.66 3.96 1.32 6 2 C6.33 1.34 6.66 0.68 7 0 C7.66 0 8.32 0 9 0 C9 0.99 9 1.98 9 3 C9.66 3.66 10.32 4.32 11 5 C6.28596212 4.52060632 2.33420699 4.03165952 -2 2 C-1.34 1.34 -0.68 0.68 0 0 Z " fill="#292929" transform="translate(632,241)"/>
<path d="M0 0 C0.33 0 0.66 0 1 0 C1 2.64 1 5.28 1 8 C2.98 6.35 4.96 4.7 7 3 C7.66 3.33 8.32 3.66 9 4 C8.4375 5.9375 8.4375 5.9375 7 8 C3.375 8.75 3.375 8.75 0 9 C0 6.03 0 3.06 0 0 Z " fill="#D5D5D5" transform="translate(743,124)"/>
<path d="M0 0 C2.96175123 0.61277612 4.38058783 1.25372522 7 3 C6.01 3.33 5.02 3.66 4 4 C3.67 4.66 3.34 5.32 3 6 C1.68 5.34 0.36 4.68 -1 4 C-0.67 2.68 -0.34 1.36 0 0 Z " fill="#DCDCDC" transform="translate(336,259)"/>
<path d="M0 0 C-0.33 0.99 -0.66 1.98 -1 3 C-3.31 3.33 -5.62 3.66 -8 4 C-8.33 2.68 -8.66 1.36 -9 0 C-5.93109813 -1.53445094 -3.29905734 -0.54984289 0 0 Z " fill="#E4E4E4" transform="translate(150,243)"/>
<path d="M0 0 C-0.375 2.9375 -0.375 2.9375 -1 6 C-1.99 6.495 -1.99 6.495 -3 7 C-3.33 7.99 -3.66 8.98 -4 10 C-5 9 -5 9 -5.25 6.125 C-5 3 -5 3 -3.625 1.125 C-2 0 -2 0 0 0 Z " fill="#212121" transform="translate(347,232)"/>
<path d="M0 0 C2.31 0.66 4.62 1.32 7 2 C5.68 2.33 4.36 2.66 3 3 C3 3.99 3 4.98 3 6 C-0.3 5.67 -3.6 5.34 -7 5 C-7 4.67 -7 4.34 -7 4 C-4.36 3.67 -1.72 3.34 1 3 C0.67 2.01 0.34 1.02 0 0 Z " fill="#D6D6D6" transform="translate(557,227)"/>
<path d="M0 0 C-0.33 1.65 -0.66 3.3 -1 5 C-3.375 5.625 -3.375 5.625 -6 6 C-6.66 5.34 -7.32 4.68 -8 4 C-2.25 0 -2.25 0 0 0 Z " fill="#141414" transform="translate(202,140)"/>
<path d="M0 0 C0.99 0.33 1.98 0.66 3 1 C2.67 2.32 2.34 3.64 2 5 C-0.97 4.505 -0.97 4.505 -4 4 C-2 1 -2 1 0 0 Z " fill="#E0E0E0" transform="translate(647,229)"/>
<path d="M0 0 C0.99 0.33 1.98 0.66 3 1 C1.71937515 2.7074998 0.38232443 4.37373596 -1 6 C-1.66 6 -2.32 6 -3 6 C-3 8.31 -3 10.62 -3 13 C-3.33 13 -3.66 13 -4 13 C-4.49230769 5.73846154 -4.49230769 5.73846154 -2 2 C-1.34 1.34 -0.68 0.68 0 0 Z " fill="#BABABA" transform="translate(693,94)"/>
<path d="M0 0 C0.66 0.33 1.32 0.66 2 1 C1.625 2.9375 1.625 2.9375 1 5 C0.01 5.495 0.01 5.495 -1 6 C-3.125 5.0625 -3.125 5.0625 -5 4 C-3.35 2.68 -1.7 1.36 0 0 Z " fill="#E5E5E5" transform="translate(211,182)"/>
<path d="M0 0 C0.99 0.33 1.98 0.66 3 1 C2.00156904 3.99529289 1.48615558 5.15840327 -1 7 C-3.1875 6.6875 -3.1875 6.6875 -5 6 C-3.4198632 3.84526801 -1.89353366 1.89353366 0 0 Z " fill="#ECECEC" transform="translate(427,144)"/>
<path d="M0 0 C-1 3 -1 3 -4.375 4.75 C-8 6 -8 6 -11 5 C-9.54462432 4.16151196 -8.08559627 3.32936066 -6.625 2.5 C-5.81289062 2.0359375 -5.00078125 1.571875 -4.1640625 1.09375 C-2 0 -2 0 0 0 Z " fill="#DBDBDB" transform="translate(211,143)"/>
<path d="M0 0 C2.3125 2.25 2.3125 2.25 3.3125 5.25 C-0.01204983 4.67680175 -1.42731645 3.70672125 -3.6875 1.25 C-4.6775 0.59 -5.6675 -0.07 -6.6875 -0.75 C-3.59026622 -2.12654835 -2.92222109 -1.90284164 0 0 Z " fill="#121210" transform="translate(911.6875,142.75)"/>
<path d="M0 0 C-3.36423277 2.96052484 -6.69159287 3.92289822 -11 5 C-4.74206349 -1.42261905 -4.74206349 -1.42261905 0 0 Z " fill="#2B2B2B" transform="translate(893,138)"/>
<path d="M0 0 C3 1 3 1 4 3 C0.49223216 4.60355101 -2.14354879 5.22036864 -6 5 C-5.195625 4.360625 -4.39125 3.72125 -3.5625 3.0625 C-1.7249496 1.59396498 -1.7249496 1.59396498 0 0 Z " fill="#252525" transform="translate(557,258)"/>
<path d="M0 0 C0.99 0.66 1.98 1.32 3 2 C2.38125 2.28875 1.7625 2.5775 1.125 2.875 C-1.13325765 3.93720042 -1.13325765 3.93720042 -3 6 C-4.32 5.67 -5.64 5.34 -7 5 C-4.69 3.35 -2.38 1.7 0 0 Z " fill="#222222" transform="translate(182,254)"/>
<path d="M0 0 C1.32 0.66 2.64 1.32 4 2 C3.67 3.32 3.34 4.64 3 6 C0.525 5.01 0.525 5.01 -2 4 C-1.34 2.68 -0.68 1.36 0 0 Z " fill="#101010" transform="translate(647,224)"/>
<path d="M0 0 C2.3125 0.1875 2.3125 0.1875 5 1 C6.875 3.3125 6.875 3.3125 8 6 C7.6875 8.3125 7.6875 8.3125 7 10 C6.401875 8.906875 5.80375 7.81375 5.1875 6.6875 C3.70955303 4.08925871 2.30177067 1.95650507 0 0 Z " fill="#E2E2E2" transform="translate(820,138)"/>
<path d="M0 0 C0.33 0.66 0.66 1.32 1 2 C-0.11179163 5.33537489 -1.47411298 6.63707344 -4 9 C-5.32 8.34 -6.64 7.68 -8 7 C-7.05125 6.401875 -6.1025 5.80375 -5.125 5.1875 C-1.86035803 3.18437474 -1.86035803 3.18437474 0 0 Z " fill="#DBDBDB" transform="translate(913,171)"/>
<path d="M0 0 C-1 3 -1 3 -3.25 4.125 C-5.8273678 4.94507157 -8.33619068 5.54334697 -11 6 C-8.24029211 2.78034079 -4.3526723 0 0 0 Z " fill="#242424" transform="translate(187,127)"/>
<path d="M0 0 C0.66 0.33 1.32 0.66 2 1 C1 4 1 4 -1 5 C-2.99960012 5.039992 -5.00047242 5.04346799 -7 5 C-5.47058649 1.94117299 -3.05780454 1.31048766 0 0 Z " fill="#E1E1E1" transform="translate(273,106)"/>
<path d="M0 0 C-0.99 0.495 -0.99 0.495 -2 1 C-2.33 1.99 -2.66 2.98 -3 4 C-4.32 4 -5.64 4 -7 4 C-7 3.01 -7 2.02 -7 1 C-4.53721199 -0.231394 -2.7204945 -0.07159196 0 0 Z " fill="#F1F1F1" transform="translate(635,244)"/>
<path d="M0 0 C1.32 0 2.64 0 4 0 C4.66 0.99 5.32 1.98 6 3 C5.67 3.66 5.34 4.32 5 5 C2.525 4.01 2.525 4.01 0 3 C0 2.01 0 1.02 0 0 Z " fill="#171717" transform="translate(349,173)"/>
<path d="M0 0 C1.32 0.33 2.64 0.66 4 1 C4 1.66 4 2.32 4 3 C6.31 3 8.62 3 11 3 C11 3.33 11 3.66 11 4 C3.52908757 5.34721372 3.52908757 5.34721372 1 3.6875 C0 2 0 2 0 0 Z " fill="#151515" transform="translate(508,264)"/>
<path d="M0 0 C2.97 0.495 2.97 0.495 6 1 C4.68 1.99 3.36 2.98 2 4 C2.33 4.66 2.66 5.32 3 6 C2.01 5.67 1.02 5.34 0 5 C0 3.35 0 1.7 0 0 Z " fill="#C8C8C8" transform="translate(621,259)"/>
<path d="M0 0 C1.32 0 2.64 0 4 0 C4.66 1.32 5.32 2.64 6 4 C4.35 4 2.7 4 1 4 C0.67 2.68 0.34 1.36 0 0 Z " fill="#F7F7F7" transform="translate(560,230)"/>
<path d="M0 0 C0.99 0.99 1.98 1.98 3 3 C2.236875 3.45375 1.47375 3.9075 0.6875 4.375 C-1.23632814 5.53824492 -3.12941224 6.7529415 -5 8 C-3.62845496 5.04590299 -2.01136276 2.55991624 0 0 Z " fill="#DEDEDE" transform="translate(343,170)"/>
<path d="M0 0 C1.32 0 2.64 0 4 0 C4.33 1.98 4.66 3.96 5 6 C4.01 6.495 4.01 6.495 3 7 C2.01 4.69 1.02 2.38 0 0 Z " fill="#191919" transform="translate(772,142)"/>
<path d="M0 0 C0.66 0.99 1.32 1.98 2 3 C1.34 4.32 0.68 5.64 0 7 C-0.99 7 -1.98 7 -3 7 C-1.125 2.25 -1.125 2.25 0 0 Z " fill="#1B1B1B" transform="translate(264,256)"/>
<path d="M0 0 C1.32 0.33 2.64 0.66 4 1 C2.35 2.65 0.7 4.3 -1 6 C-1 2 -1 2 0 0 Z " fill="#171717" transform="translate(231,247)"/>
<path d="M0 0 C0.99 0.66 1.98 1.32 3 2 C3 2.66 3 3.32 3 4 C0.625 5.6875 0.625 5.6875 -2 7 C-2.66 6.67 -3.32 6.34 -4 6 C-2.68 4.02 -1.36 2.04 0 0 Z " fill="#222222" transform="translate(206,228)"/>
<path d="M0 0 C0.82638376 2.89234315 1 4.88742431 1 8 C0.01 7.67 -0.98 7.34 -2 7 C-1.125 1.125 -1.125 1.125 0 0 Z " fill="#2B2B2B" transform="translate(428,159)"/>
</svg>
